<svg xmlns="http://www.w3.org/2000/svg" fill="none" viewBox="1 0 22 23" key="ftpfkwt"><g clip-path="url(#a)" key="uwxlpbj"><path fill="url(#b)" d="M19.521.9 2.216 4.893A1.57 1.57 0 0 0 1.04 6.777l.463 2.007a1.57 1.57 0 0 0 1.883 1.177l17.305-3.995a1.57 1.57 0 0 0 1.177-1.883l-.464-2.007A1.57 1.57 0 0 0 19.521.899" key="bqtjn5x"/><path fill="#5A4CDB" d="M1 18h22v3c0 1.1-.9 2-2 2H3c-1.1 0-2-.9-2-2z" key="ksdnjr5"/><path fill="#885EDE" d="M23 13H8v5h15z" key="bkivyk7"/><path fill="#C689E6" d="M16 8H1v5h15z" key="09ljzbi"/><path fill="#AA72E1" d="M8 13H1v5h7zM16 8h5c1.1 0 2 .9 2 2v3h-7z" key="6k0oajw"/><path fill="#5A4CDB" d="M1 16.43V18h1.57C1.7 18 1 17.3 1 16.43" key="pz35d1t"/><path fill="#AA72E1" d="M1 11.43V13h1.57C1.7 13 1 12.3 1 11.43" key="i5esbs1"/><path fill="#C689E6" d="M1 6.43V8h1.57C1.7 8 1 7.3 1 6.43" key="wmsil9o"/><path fill="url(#c)" d="M21 8H2.57C1.7 8 1 7.29 1 6.43V21c0 1.1.9 2 2 2h18c1.1 0 2-.9 2-2V10c0-1.1-.9-2-2-2" style="mix-blend-mode:soft-light" key="yjt4mt2"/></g><defs key="3dcisa4"><linearGradient id="b" x1=".687" x2="13.937" y1="5.247" y2="15.909" gradientUnits="userSpaceOnUse" key="q00697c"><stop stop-color="#5A4CDB" key="t2a0un7"/><stop offset="1" stop-color="#AD58DB" key="lxi00qc"/></linearGradient><linearGradient id="c" x1="1" x2="25.617" y1="6.43" y2="16.771" gradientUnits="userSpaceOnUse" key="pt4ap3t"><stop stop-color="#FCCEF5" key="nyf0q31"/><stop offset="1" stop-color="#5A4CDB" key="4eafku0"/></linearGradient><clipPath id="a" key="xchc1oq"><path fill="#fff" d="M1 0h22v23H1z" key="eljbb3w"/></clipPath></defs></svg>