<svg xmlns="http://www.w3.org/2000/svg" viewBox="0 1 24 22" key="wmezrh1"><defs key="0ofzfmv"><style key="ahqlhfe">.cls-3{fill:#107c41}</style></defs><g id="Excel" key="vfxqp5n"><g id="_24" data-name="24" key="0u0z7dd"><path d="M16 1H7a1 1 0 0 0-1 1v5l10 5 4 1.5 4-1.5V7Z" fill="#21a366" key="irgsnfb"/><path d="M0 0h24v24H0z" fill="none" key="w50un2e"/><path d="M6 7.02h10V12H6z" key="9ew5lhz"/><path d="M24 2v5h-8V1h7a1 1 0 0 1 1 1" fill="#33c481" key="947547s"/><path d="M16 12H6v10a1 1 0 0 0 1 1h16a1 1 0 0 0 1-1v-5Z" fill="#185c37" key="6riulrl"/><path d="M13.83 6H6v14h7.6a1.5 1.5 0 0 0 1.4-1.35V7.17A1.18 1.18 0 0 0 13.83 6" opacity=".5" key="pzyyowx"/><rect id="Back_Plate" width="14" height="14" y="5" data-name="Back Plate" rx="1.17" key="d16az0c"/><path d="M3.43 16 6 12 3.64 8h1.91l1.3 2.55a5 5 0 0 1 .24.54 6 6 0 0 1 .27-.56L8.76 8h1.75l-2.43 4 2.49 4H8.71l-1.5-2.8a2 2 0 0 1-.21-.37 1.5 1.5 0 0 1-.17.36L5.3 16Z" fill="#fff" key="z6vvnzl"/><path d="M16 12h8v5h-8z" key="d2t66xg"/></g></g></svg>