<svg xmlns="http://www.w3.org/2000/svg" fill="none" viewBox="2 0.6 28 30.8" key="egpk1jg"><path fill="url(#a)" d="m13.259 1.317-.157.095s2.706.186 3.598.186l.7 5.3-3.5 3.5-3.5 2.434v2.805a5.6 5.6 0 0 0 2.7 4.79l3.685 2.23L9 27.2H7.499L4.7 25.505a5.6 5.6 0 0 1-2.7-4.79V11.28A5.6 5.6 0 0 1 4.702 6.49l8.4-5.081q.078-.047.157-.092" key="rdsmepf"/><path fill="url(#b)" d="m13.259 1.317-.157.095s2.706.186 3.598.186l.7 5.3-3.5 3.5-3.5 2.434v2.805a5.6 5.6 0 0 0 2.7 4.79l3.685 2.23L9 27.2H7.499L4.7 25.505a5.6 5.6 0 0 1-2.7-4.79V11.28A5.6 5.6 0 0 1 4.702 6.49l8.4-5.081q.078-.047.157-.092" key="y8ygbeu"/><path fill="url(#c)" d="M21.6 12.499v3.136a5.6 5.6 0 0 1-2.7 4.79l-8.4 5.086a5.6 5.6 0 0 1-5.605.112L13.1 30.59a5.6 5.6 0 0 0 5.8 0l8.4-5.085a5.6 5.6 0 0 0 2.7-4.79v-2.266l-.7-1.05z" key="zt4w4mt"/><path fill="url(#d)" d="M21.6 12.499v3.136a5.6 5.6 0 0 1-2.7 4.79l-8.4 5.086a5.6 5.6 0 0 1-5.605.112L13.1 30.59a5.6 5.6 0 0 0 5.8 0l8.4-5.085a5.6 5.6 0 0 0 2.7-4.79v-2.266l-.7-1.05z" key="wrmsa4g"/><path fill="url(#e)" d="m27.299 6.49-8.4-5.081a5.6 5.6 0 0 0-5.63-.097l-.167.1A5.6 5.6 0 0 0 10.4 6.205v6.64l2.702-1.635a5.6 5.6 0 0 1 5.797 0l8.4 5.08a5.6 5.6 0 0 1 2.698 4.61l.003-.184v-9.433A5.6 5.6 0 0 0 27.3 6.49" key="8qaynrw"/><path fill="url(#f)" d="m27.299 6.49-8.4-5.081a5.6 5.6 0 0 0-5.63-.097l-.167.1A5.6 5.6 0 0 0 10.4 6.205v6.64l2.702-1.635a5.6 5.6 0 0 1 5.797 0l8.4 5.08a5.6 5.6 0 0 1 2.698 4.61l.003-.184v-9.433A5.6 5.6 0 0 0 27.3 6.49" key="fzbrwh7"/><defs key="f7dn5au"><radialGradient id="a" cx="0" cy="0" r="1" gradientTransform="rotate(113.009 4.9 8.504)scale(29.9014 37.7328)" gradientUnits="userSpaceOnUse" key="g3qchwn"><stop offset=".06" stop-color="#AE7FE2" key="dq8ej8n"/><stop offset="1" stop-color="#0078D4" key="fov2dg7"/></radialGradient><radialGradient id="c" cx="0" cy="0" r="1" gradientTransform="rotate(-18.529 82.727 -14.11)scale(20.0923 15.3031)" gradientUnits="userSpaceOnUse" key="yh8aqkj"><stop offset=".111" stop-color="#D59DFF" key="d1wsmxv"/><stop offset="1" stop-color="#5E438F" key="jzvgovz"/></radialGradient><radialGradient id="e" cx="0" cy="0" r="1" gradientTransform="matrix(-33.93293 -8.32908 6.09457 -24.82946 30.867 16.372)" gradientUnits="userSpaceOnUse" key="biyt9rv"><stop offset=".096" stop-color="#50E6FF" key="0bkvp72"/><stop offset="1" stop-color="#436DCD" key="8vdjixu"/></radialGradient><linearGradient id="b" x1="13.592" x2="11.378" y1="24.74" y2="19.401" gradientUnits="userSpaceOnUse" key="5ac5n37"><stop stop-color="#114A8B" key="kvg44gn"/><stop offset="1" stop-color="#0078D4" stop-opacity="0" key="oqfvemh"/></linearGradient><linearGradient id="d" x1="27.449" x2="23.878" y1="16.963" y2="22.083" gradientUnits="userSpaceOnUse" key="t2lpfvb"><stop stop-color="#493474" key="rew1oyi"/><stop offset="1" stop-color="#8C66BA" stop-opacity="0" key="s0e2yb2"/></linearGradient><linearGradient id="f" x1="11.128" x2="17.351" y1="3.486" y2="3.756" gradientUnits="userSpaceOnUse" key="1uyw3ir"><stop stop-color="#2D3F80" key="vg76l2c"/><stop offset="1" stop-color="#436DCD" stop-opacity="0" key="60gterm"/></linearGradient></defs></svg>