<svg xmlns="http://www.w3.org/2000/svg" viewBox="0 1 24 22" key="ki5dnhs"><defs key="ohj0rrz"><style key="e2o5hja">.cls-4{fill:#7719aa}</style></defs><g id="OneNote" key="rs5pdej"><g id="_24" data-name="24" key="qngwwmi"><path d="M0 0h24v24H0z" fill="none" key="3266iyu"/><path d="M23 1H7a1 1 0 0 0-1 1v20a1 1 0 0 0 1 1h13.23A3.77 3.77 0 0 0 24 19.23V2a1 1 0 0 0-1-1" fill="#ca64ea" key="ftl9yfw"/><path d="M13.83 6H6v14h7.6a1.5 1.5 0 0 0 1.4-1.35V7.17A1.18 1.18 0 0 0 13.83 6" opacity=".75" key="rb8qd4a"/><rect id="Back_Plate" width="14" height="14" y="5" data-name="Back Plate" rx="1.17" key="z73b78w"/><path d="M3.8 8h1.7l2.94 5.16a5.3 5.3 0 0 1 .33.77 6.6 6.6 0 0 1-.05-1.06V8h1.48v8H8.61l-3.06-5.32a5 5 0 0 1-.31-.55 10 10 0 0 1 0 1.16V16H3.8Z" fill="#fff" key="x4fz707"/><path d="M18 5h6v6h-6z" fill="#ae4bd5" key="sdpctmn"/><path d="M18 11h6v6h-6z" fill="#9332bf" key="pwufvxx"/><path d="M18 17v6h5a1 1 0 0 0 1-1v-5Z" key="uawo52l"/></g></g></svg>