<svg xmlns="http://www.w3.org/2000/svg" viewBox="0 1 24 22" key="ptjcy14"><path d="M0 0h24v24H0z" fill="none" key="6a08psm"/><path d="M13 1A11 11 0 0 0 2 12l14.84 3.84Z" fill="#ed6c47" key="kq46mj1"/><path d="M13 1a11 11 0 0 1 11 11l-5.5 3-5.5-3Z" fill="#ff8f6b" key="t3ngo5a"/><path d="M2 12a11 11 0 0 0 22 0Z" fill="#d35230" key="xzkz2vl"/><path d="M15 18.65V7.17A1.18 1.18 0 0 0 13.83 6H3.8a10.91 10.91 0 0 0 1.69 14h8.11a1.5 1.5 0 0 0 1.4-1.35" opacity=".5" key="8kwtjol"/><path d="M15 18.65V7.17A1.18 1.18 0 0 0 13.83 6H3.8a10.91 10.91 0 0 0 1.69 14h8.11a1.5 1.5 0 0 0 1.4-1.35" opacity=".1" key="ppg5901"/><rect width="14" height="14" y="5" data-name="Back Plate" rx="1.17" fill="#c43e1c" key="0ps675j"/><path d="M7.4 8a3.32 3.32 0 0 1 2.2.64 2.32 2.32 0 0 1 .76 1.86 3.4 3.4 0 0 1-.36 1.61 2.54 2.54 0 0 1-1.07 1 3.7 3.7 0 0 1-1.61.34H5.78V16H4.22V8Zm-1.62 4h1.34a1.78 1.78 0 0 0 1.19-.35 1.46 1.46 0 0 0 .4-1.1c0-.88-.51-1.32-1.54-1.32H5.78Z" fill="#fff" key="o2jcv1h"/></svg>