<svg xmlns="http://www.w3.org/2000/svg" viewBox="0 1.69 23.99 21.31" key="eas3cew"><defs key="a1r9ch6"><style key="8hm4js1">.cls-1{opacity:.1}.cls-3{fill:#5059c9}.cls-4{fill:#7b83eb}.cls-5{opacity:.5}</style></defs><g id="Teams" key="kjjpedw"><path d="M8 10.12v7.38a5.4 5.4 0 0 0 .61 2.5h5A1.5 1.5 0 0 0 15 18.65V9H9.12A1.12 1.12 0 0 0 8 10.12M13.83 6h-3A3.29 3.29 0 0 0 14 8.31a3.3 3.3 0 0 0 1-.17v-1A1.18 1.18 0 0 0 13.83 6" key="bxu5p9l"/><path d="M0 0h24v24H0z" fill="none" key="n1bbpmd"/><path d="M22.87 9h-5l-1.39 1.13v5.59a3.76 3.76 0 0 0 7.51 0v-5.59A1.12 1.12 0 0 0 22.87 9" key="dbwy1dr"/><circle id="Head" cx="20.5" cy="5.5" r="2.5" key="k63jnc2"/><path d="M9.12 9h8.76A1.12 1.12 0 0 1 19 10.12v7.38a5.5 5.5 0 0 1-5.5 5.5A5.5 5.5 0 0 1 8 17.5v-7.38A1.12 1.12 0 0 1 9.12 9" key="k7h3uen"/><circle id="Head-2" cx="14" cy="5" r="3.31" data-name="Head" key="ta5muqf"/><path d="M8 10.12v7.38a5.4 5.4 0 0 0 .61 2.5h5A1.5 1.5 0 0 0 15 18.65V9H9.12A1.12 1.12 0 0 0 8 10.12M13.83 6h-3A3.29 3.29 0 0 0 14 8.31a3.3 3.3 0 0 0 1-.17v-1A1.18 1.18 0 0 0 13.83 6" key="0dqhy8t"/><rect id="Back_Plate" width="14" height="14" y="5" data-name="Back Plate" rx="1.17" fill="#4b53bc" key="1uu9oek"/><path d="M10.18 9.58H7.79V16H6.22V9.58h-2.4V8h6.36Z" fill="#fff" key="topr56m"/></g></svg>