<svg xmlns="http://www.w3.org/2000/svg" viewBox="0 1 24 22" key="aul2i92"><defs key="2usgfvj"><style key="hcn2hce">.cls-4{fill:#185abd}</style></defs><g id="Word" key="t7v5o0w"><g id="_24" data-name="24" key="a5u4juz"><path d="M0 0h24v24H0z" fill="none" key="92ysown"/><path d="M24 7V2a1 1 0 0 0-1-1H7a1 1 0 0 0-1 1v5l9 2Z" fill="#41a5ee" key="o3tgn4y"/><path d="M24 7H6v5l9.5 2 8.5-2z" fill="#2b7cd3" key="1ptec8v"/><path d="M24 12H6v5l9 1.5 9-1.5z" key="ma21172"/><path d="M6 17h18v5a1 1 0 0 1-1 1H7a1 1 0 0 1-1-1z" fill="#103f91" key="4f2e0sp"/><path d="M13.83 6H6v14h7.6a1.5 1.5 0 0 0 1.4-1.35V7.17A1.18 1.18 0 0 0 13.83 6" opacity=".5" key="upd80ni"/><rect id="Back_Plate" width="14" height="14" y="5" data-name="Back Plate" rx="1.17" key="vmi1t4x"/><path id="Letter" d="M10.16 16H8.72L7 10.48 5.28 16H3.84l-1.6-8h1.44l1.12 5.6 1.68-5.44h1.2l1.6 5.44L10.4 8h1.36Z" fill="#fff" key="wawsu1i"/></g></g></svg>